<svg xmlns="http://www.w3.org/2000/svg" version="1.1" xmlns:xlink="http://www.w3.org/1999/xlink" xmlns:svgjs="http://svgjs.dev/svgjs" width="1520" height="3730" preserveAspectRatio="none" viewBox="0 0 1520 3730"><g mask="url(&quot;#SvgjsMask1058&quot;)" fill="none"><path d="M1335.5179931781774 3320.3869960155926L1230.2294082124863 3046.100854684386 955.9432668812799 3151.3894396500773 1061.231851846971 3425.675580981284z" fill="rgba(255, 255, 255, 0.4)" class="triangle-float2"></path><path d="M1520.133,2114.338C1627.376,2117.477,1705.658,2021.092,1753.129,1924.876C1794.82,1840.376,1792.771,1741.716,1743.649,1661.308C1696.589,1584.275,1610.171,1549.951,1520.133,1543.485C1413.845,1535.852,1285.984,1532.124,1233.116,1624.646C1180.426,1716.856,1255.916,1820.272,1309.618,1911.896C1362.38,2001.916,1415.835,2111.286,1520.133,2114.338" fill="rgba(255, 255, 255, 0.4)" class="triangle-float3"></path><path d="M1062.3954996323228 2844.2682562356795L1360.12728061297 2849.749019795716 1237.919843860459 2619.91025923313z" fill="rgba(255, 255, 255, 0.4)" class="triangle-float3"></path><path d="M937.471,267.664C981.382,266.695,1011.094,227.924,1032.36,189.494C1052.762,152.624,1066.174,109.056,1045.582,72.292C1024.622,34.869,980.32,18.138,937.471,20.08C897.904,21.873,865.209,47.256,845.096,81.377C824.609,116.131,817.116,157.706,835.039,193.849C855.078,234.26,892.375,268.659,937.471,267.664" fill="rgba(255, 255, 255, 0.4)" class="triangle-float3"></path><path d="M-122.6091440676879 1456.9577255665602L161.88982707079487 1486.859772361942-92.70709727230604 1172.4587544280773z" fill="rgba(255, 255, 255, 0.4)" class="triangle-float3"></path><path d="M1127.284,3552.361C1162.081,3550.008,1189.156,3527.29,1208.583,3498.326C1231.378,3464.341,1258.45,3422.912,1237.81,3387.576C1217.245,3352.369,1167.938,3356.033,1127.284,3359.141C1093.396,3361.732,1061.687,3374.374,1042.607,3402.5C1020.586,3434.962,1005.122,3476.626,1024.419,3510.777C1043.919,3545.288,1087.735,3555.035,1127.284,3552.361" fill="rgba(255, 255, 255, 0.4)" class="triangle-float3"></path><path d="M911.0095902584965 1052.3309078452576L652.9158251374956 1146.2693559989946 922.8703799286016 1486.4407796036276z" fill="rgba(255, 255, 255, 0.4)" class="triangle-float3"></path><path d="M1023.3590641721574 1939.8979691886575L1102.425838068306 2198.5137336219686 1361.0416025016168 2119.44695972582 1281.9748286054682 1860.8311952925092z" fill="rgba(255, 255, 255, 0.4)" class="triangle-float2"></path><path d="M472.906,519.91C557.719,520.36,652.904,524.172,701.075,454.365C754.317,377.209,749.799,270.896,699.197,191.983C651.983,118.353,560.165,92.516,472.906,98.54C396.137,103.84,336.148,154.894,294.952,219.89C249.699,291.286,205.774,379.262,248.897,451.964C291.562,523.894,389.276,519.466,472.906,519.91" fill="rgba(255, 255, 255, 0.4)" class="triangle-float1"></path><path d="M1215.433,1228.457C1341.056,1226.624,1479.401,1214.092,1545.556,1107.284C1614.285,996.321,1582.016,855.754,1516.033,743.136C1450.895,631.96,1344.086,551.009,1215.433,543.841C1073.014,535.906,924.515,584.056,850.62,706.063C774.462,831.806,784.021,996.641,868.191,1117.168C942.779,1223.975,1085.174,1230.358,1215.433,1228.457" fill="rgba(255, 255, 255, 0.4)" class="triangle-float3"></path><path d="M512.4651896402036 2704.87262861584L267.8348714425081 3066.8074698043615 648.2602153591736 3100.0903747150205z" fill="rgba(255, 255, 255, 0.4)" class="triangle-float1"></path><path d="M-17.135935637586286 1976.940550559342L338.09955336125313 2244.629692034664 605.7886948365749 1889.3942030358244 250.5532058377355 1621.7050615605026z" fill="rgba(255, 255, 255, 0.4)" class="triangle-float3"></path><path d="M853.2,238.706C927.467,239.123,990.123,192.52,1030.511,130.194C1075.603,60.609,1111.377,-25.514,1071.548,-98.24C1030.662,-172.896,938.281,-196.107,853.2,-193.569C773.055,-191.178,694.429,-156.392,656.31,-85.852C619.741,-18.181,639.412,62.455,679.308,128.22C717.484,191.151,779.596,238.292,853.2,238.706" fill="rgba(255, 255, 255, 0.4)" class="triangle-float3"></path><path d="M534.6698444001419 1306.0985213155022L355.44635004732356 1138.9699090411912 188.31773777301254 1318.1934033940095 367.54123212583085 1485.3220156683205z" fill="rgba(255, 255, 255, 0.4)" class="triangle-float2"></path><path d="M32.282,2517.215C93.722,2520.035,154.995,2495.246,187.691,2443.151C222.426,2387.806,224.948,2317.624,193.496,2260.349C160.854,2200.907,100.095,2160.67,32.282,2160.145C-36.402,2159.613,-103.03,2196.17,-133.312,2257.82C-160.918,2314.022,-133.928,2377.156,-100.235,2429.934C-69.731,2477.717,-24.348,2514.616,32.282,2517.215" fill="rgba(255, 255, 255, 0.4)" class="triangle-float3"></path><path d="M323.471,2635.657C488.253,2633.64,612.069,2504.64,694.931,2362.194C778.387,2218.727,835.936,2043.491,750.825,1900.999C667.18,1760.962,486.551,1736.869,323.471,1740.301C167.963,1743.574,7.563,1785.804,-73.823,1918.354C-158.549,2056.344,-142.533,2229.834,-64.078,2371.483C17.111,2518.067,155.918,2637.708,323.471,2635.657" fill="rgba(255, 255, 255, 0.4)" class="triangle-float3"></path></g><defs><mask id="SvgjsMask1058"><rect width="1520" height="3730" fill="#ffffff"></rect></mask><style>
                @keyframes float1 {
                    0%{transform: translate(0, 0)}
                    50%{transform: translate(-5rem, 0)}
                    100%{transform: translate(0, 0)}
                }

                .triangle-float1 {
                    animation: float1 5s infinite;
                }

                @keyframes float2 {
                    0%{transform: translate(0, 0)}
                    50%{transform: translate(-3rem, -3rem)}
                    100%{transform: translate(0, 0)}
                }

                .triangle-float2 {
                    animation: float2 4s infinite;
                }

                @keyframes float3 {
                    0%{transform: translate(0, 0)}
                    50%{transform: translate(0, -5rem)}
                    100%{transform: translate(0, 0)}
                }

                .triangle-float3 {
                    animation: float3 6s infinite;
                }
            </style></defs></svg>